<?xml version="1.0" encoding="UTF-8"?>
<svg width="236px" height="176px" viewBox="0 0 236 176" version="1.1" xmlns="http://www.w3.org/2000/svg" xmlns:xlink="http://www.w3.org/1999/xlink">
    <!-- Generator: Sketch 47 (45396) - http://www.bohemiancoding.com/sketch -->
    <title>Group 23</title>
    <desc>Created with Sketch.</desc>
    <defs></defs>
    <g id="Page-1" stroke="none" stroke-width="1" fill="none" fill-rule="evenodd">
        <g id="Group-23" transform="translate(-32.000000, -62.000000)">
            <rect id="Rectangle-11" x="0" y="0" width="300" height="300"></rect>
            <g id="Group-22" transform="translate(32.000000, 62.000000)" fill-rule="nonzero" fill="#7C81D5">
                <path d="M189.212764,102.431573 C205.56212,98.386999 223.622599,102.927218 236,115.867389 L186.263074,162.852355 C167.015003,181.035137 136.296069,180.261547 118,161.132658" id="Shape" opacity="0.5"></path>
                <path d="M46.8092797,102.43701 C30.4544128,98.3828502 12.3829117,102.921702 0,115.867357 L49.7369263,162.852348 C68.9849969,181.03514 99.7039312,180.261549 118,161.13265" id="Shape" opacity="0.5"></path>
                <path d="M118,162 L118,162 C169.531408,152.515105 203.921174,102.653469 194.422468,51.1969791 L187.740602,15 L155.45828,32.7643296 C152.05097,34.6394916 148.802687,36.6969227 145.720344,38.9159105" id="Shape" opacity="0.7"></path>
                <path d="M118,162 L118,162 C66.4685916,152.515105 32.0788265,102.653469 41.5775315,51.1969791 L48.2593983,15 L80.5417203,32.7643296 C83.9476471,34.6381108 87.1945475,36.6941611 90.2741248,38.9131488" id="Shape" opacity="0.7"></path>
                <path d="M140.084351,29.7337159 L118.500496,0 L96.9166407,29.7337159 C66.2340621,72.0025976 75.9461048,131.522288 118.500496,162 L118.500496,162 C161.053503,131.523663 170.765545,72.0039729 140.084351,29.7337159 Z" id="Shape"></path>
            </g>
        </g>
    </g>
</svg>